<?xml version="1.0" encoding="UTF-8" standalone="no"?>
<svg
   xmlns:dc="http://purl.org/dc/elements/1.1/"
   xmlns:cc="http://creativecommons.org/ns#"
   xmlns:rdf="http://www.w3.org/1999/02/22-rdf-syntax-ns#"
   xmlns:svg="http://www.w3.org/2000/svg"
   xmlns="http://www.w3.org/2000/svg"
   xmlns:sodipodi="http://sodipodi.sourceforge.net/DTD/sodipodi-0.dtd"
   xmlns:inkscape="http://www.inkscape.org/namespaces/inkscape"
   data-name="Layer 1"
   height="24"
   id="Layer_1"
   viewBox="0 0 24 24"
   width="24"
   version="1.1"
   sodipodi:docname="potionbottle.svg"
   inkscape:version="1.0.2 (e86c870879, 2021-01-15, custom)">
  <metadata
     id="metadata54">
    <rdf:RDF>
      <cc:Work
         rdf:about="">
        <dc:format>image/svg+xml</dc:format>
        <dc:type
           rdf:resource="http://purl.org/dc/dcmitype/StillImage" />
        <dc:title></dc:title>
      </cc:Work>
    </rdf:RDF>
  </metadata>
  <defs
     id="defs52" />
  <sodipodi:namedview
     pagecolor="#ffffff"
     bordercolor="#666666"
     borderopacity="1"
     objecttolerance="10"
     gridtolerance="10"
     guidetolerance="10"
     inkscape:pageopacity="0"
     inkscape:pageshadow="2"
     inkscape:window-width="1587"
     inkscape:window-height="1048"
     id="namedview50"
     showgrid="false"
     inkscape:zoom="35.458333"
     inkscape:cx="6.5710928"
     inkscape:cy="12"
     inkscape:window-x="0"
     inkscape:window-y="0"
     inkscape:window-maximized="0"
     inkscape:current-layer="Layer_1" />
  <path
     d="M20,14a7.9915,7.9915,0,0,0-4.15761-7.01291A1.626,1.626,0,0,1,15,5.55984V2H9V5.55984a1.626,1.626,0,0,1-.84241,1.42725A7.99149,7.99149,0,0,0,4,14q0,.19965.00969.3968c.1952,3.9949,3.3221,5.2159,7.2744,5.567a7.097,7.097,0,0,0,1.4318,0c3.98711-.3541,7.1343-1.6292,7.2789-5.6729Q20,14.146,20,14Z"
     style="fill:#e3ede3;fill-opacity:1"
     id="path35" />
  <path
     d="M15,4H9A1,1,0,0,1,8,3H8A1,1,0,0,1,9,2h6a1,1,0,0,1,1,1h0A1,1,0,0,1,15,4Z"
     style="fill:#e3ede3;fill-opacity:1"
     id="path37" />
  <path
     d="M17.50809,14.4049l-.5715.391a2.72256,2.72256,0,0,1-2.8572,0l-.5715-.391a2.72238,2.72238,0,0,0-2.8571,0l-.5715.391a2.72272,2.72272,0,0,1-2.85729,0l-.57141-.391a2.71864,2.71864,0,0,0-2.6361-.1005,7.99238,7.99238,0,0,0,7.2696,7.6594,7.097,7.097,0,0,0,1.4318,0,7.99284,7.99284,0,0,0,7.2729-7.73A2.71914,2.71914,0,0,0,17.50809,14.4049Z"
     style="fill:#1cc4dc;fill-opacity:1"
     id="path39" />
  <circle
     cx="8"
     cy="14"
     r="2"
     style="fill:#1cc4dc;fill-opacity:1"
     id="circle41" />
  <circle
     cx="14.5"
     cy="11.5"
     r="1.5"
     style="fill:#1cc4dc;fill-opacity:1"
     id="circle43" />
  <circle
     cx="11"
     cy="8"
     r="1"
     style="fill:#1cc4dc;fill-opacity:1"
     id="circle45" />
  <circle
     cx="13"
     cy="18"
     r="1"
     style="fill:#e3ede3;fill-opacity:1"
     id="circle47" />
</svg>
